<svg xmlns="http://www.w3.org/2000/svg" width="38" height="26" fill="none"><path fill="#fff" d="M.066 25V.937h9.625v4.69H4.906v3.828h4.54v4.635h-4.54V25H.066Z"/><path fill="#fff" fill-opacity=".52" d="M17.412 25.219c-1.923 0-3.395-.579-4.416-1.737-1.011-1.166-1.517-2.848-1.517-5.044V7.008c0-2.06.5-3.623 1.504-4.69 1.011-1.066 2.488-1.6 4.43-1.6 1.94 0 3.413.534 4.415 1.6 1.012 1.067 1.518 2.63 1.518 4.69v11.43c0 2.196-.51 3.878-1.532 5.044-1.011 1.158-2.479 1.737-4.402 1.737Zm.041-4.43c.73 0 1.094-.706 1.094-2.12V6.927c0-1.185-.355-1.778-1.067-1.778-.802 0-1.203.607-1.203 1.819v11.73c0 .748.092 1.285.274 1.614.182.319.483.478.902.478Z"/><path fill="url(#a)" d="m25.01 25 2.584-12.756-2.05-11.32h4.702l1.244 8.271L32.598.924h4.717l-2.051 11.32L37.834 25h-4.867l-1.518-9.406L29.891 25H25.01Z"/><defs><linearGradient id="a" x1="19" x2="19" y1="-8" y2="32" gradientUnits="userSpaceOnUse"><stop stop-color="#FE390C"/><stop offset="1" stop-color="#521B0E"/></linearGradient></defs></svg>