<svg width="40" height="40" fill="none" xmlns="http://www.w3.org/2000/svg"><rect y="40" width="40" height="40" rx="2" transform="rotate(-90 0 40)" fill="#FE390C"/><path d="M13.333 19.771c0-.316.236-.578.54-.619l.085-.006h10.987l-3.97-3.952a.625.625 0 0 1 .813-.946l.07.06 5.041 5.02a.62.62 0 0 1 .184.42v.048a.646.646 0 0 1-.002.036l.002-.06a.627.627 0 0 1-.123.372l-.005.007a.625.625 0 0 1-.055.062l-5.042 5.022a.625.625 0 0 1-.943-.816l.06-.07 3.968-3.952H13.958a.625.625 0 0 1-.625-.626Z" fill="#fff"/></svg>