<svg width="53" height="22" fill="none" xmlns="http://www.w3.org/2000/svg"><path d="M5.93 21.042c-1.742 0-3.09-.488-4.043-1.465C.94 18.601.469 17.194.469 15.358V6.054c0-1.938.449-3.422 1.347-4.453C2.723.56 4.094.042 5.93.042c1.843 0 3.215.52 4.113 1.559.898 1.03 1.348 2.515 1.348 4.453v9.304c0 1.836-.473 3.243-1.418 4.22-.946.976-2.293 1.464-4.043 1.464Zm0-3.797c.32 0 .57-.144.75-.434.18-.288.27-.613.27-.972V5.655c0-.484-.055-.906-.165-1.265-.101-.368-.387-.551-.855-.551-.47 0-.758.183-.867.55a4.68 4.68 0 0 0-.153 1.266V15.84c0 .36.09.684.27.972.187.29.437.434.75.434Zm8.777 3.61V4.964c-.281.336-.668.61-1.16.82-.492.203-.957.305-1.395.305V2.796c.414-.063.86-.195 1.336-.399a5.12 5.12 0 0 0 1.325-.855c.414-.367.73-.809.949-1.324h3.316v20.637h-4.371Z" fill="#FE390C"/><path d="M20.145 20.855 24.949.147h4.266l-4.817 20.708h-4.253Zm15.316.187c-1.742 0-3.09-.488-4.043-1.465-.945-.976-1.418-2.383-1.418-4.219V6.054c0-1.938.45-3.422 1.348-4.453C32.254.56 33.625.042 35.46.042c1.844 0 3.215.52 4.113 1.559.899 1.03 1.348 2.515 1.348 4.453v9.304c0 1.836-.473 3.243-1.418 4.22-.945.976-2.293 1.464-4.043 1.464Zm0-3.797c.32 0 .57-.144.75-.434.18-.288.27-.613.27-.972V5.655c0-.484-.055-.906-.165-1.265-.101-.368-.386-.551-.855-.551s-.758.183-.867.55c-.102.36-.153.782-.153 1.266V15.84c0 .36.09.684.27.972.187.29.437.434.75.434Zm11.602 3.844c-1.82 0-3.145-.48-3.973-1.441-.828-.962-1.242-2.41-1.242-4.348v-2.156h4.23v2.168c0 .546.066 1.011.2 1.394.14.375.449.563.925.563.484 0 .793-.204.926-.61.133-.414.2-1.086.2-2.015v-.516c0-.711-.122-1.332-.364-1.863-.235-.532-.7-.797-1.395-.797a2.14 2.14 0 0 0-.234.011 1.01 1.01 0 0 0-.164.012V7.788c.71 0 1.254-.156 1.629-.469.375-.32.562-.851.562-1.593 0-1.164-.336-1.746-1.008-1.746-.437 0-.734.171-.89.515-.149.336-.223.766-.223 1.29v.62h-4.265a14.248 14.248 0 0 1-.024-.34V5.68c0-1.89.441-3.278 1.324-4.16C44.16.636 45.512.194 47.332.194c3.516 0 5.273 1.828 5.273 5.485 0 1.015-.136 1.855-.41 2.52-.273.656-.78 1.116-1.523 1.382.586.281 1.02.64 1.3 1.078.282.438.465.98.551 1.63.086.648.13 1.433.13 2.355 0 2.062-.434 3.652-1.301 4.77-.86 1.116-2.29 1.675-4.29 1.675Z" fill="#C4C4C4"/></svg>